# Blender v2.79 (sub 0) OBJ File: '3d_pong_models.blend'
# www.blender.org
o Line__Line
v -29.500000 -0.500000 0.250000
v -29.500000 0.500000 0.250000
v -30.500000 -0.500000 0.250000
v -30.500000 0.500000 0.250000
v -29.500000 -0.500000 -0.250000
v -29.500000 0.500000 -0.250000
v -30.500000 -0.500000 -0.250000
v -30.500000 0.500000 -0.250000
v -27.500000 -0.500000 0.250000
v -27.500000 0.500000 0.250000
v -28.500000 -0.500000 0.250000
v -28.500000 0.500000 0.250000
v -27.500000 -0.500000 -0.250000
v -27.500000 0.500000 -0.250000
v -28.500000 -0.500000 -0.250000
v -28.500000 0.500000 -0.250000
v -25.500000 -0.500000 0.250000
v -25.500000 0.500000 0.250000
v -26.500000 -0.500000 0.250000
v -26.500000 0.500000 0.250000
v -25.500000 -0.500000 -0.250000
v -25.500000 0.500000 -0.250000
v -26.500000 -0.500000 -0.250000
v -26.500000 0.500000 -0.250000
v -23.500000 -0.500000 0.250000
v -23.500000 0.500000 0.250000
v -24.500000 -0.500000 0.250000
v -24.500000 0.500000 0.250000
v -23.500000 -0.500000 -0.250000
v -23.500000 0.500000 -0.250000
v -24.500000 -0.500000 -0.250000
v -24.500000 0.500000 -0.250000
v -21.500000 -0.500000 0.250000
v -21.500000 0.500000 0.250000
v -22.500000 -0.500000 0.250000
v -22.500000 0.500000 0.250000
v -21.500000 -0.500000 -0.250000
v -21.500000 0.500000 -0.250000
v -22.500000 -0.500000 -0.250000
v -22.500000 0.500000 -0.250000
v -19.500000 -0.500000 0.250000
v -19.500000 0.500000 0.250000
v -20.500000 -0.500000 0.250000
v -20.500000 0.500000 0.250000
v -19.500000 -0.500000 -0.250000
v -19.500000 0.500000 -0.250000
v -20.500000 -0.500000 -0.250000
v -20.500000 0.500000 -0.250000
v -17.500000 -0.500000 0.250000
v -17.500000 0.500000 0.250000
v -18.500000 -0.500000 0.250000
v -18.500000 0.500000 0.250000
v -17.500000 -0.500000 -0.250000
v -17.500000 0.500000 -0.250000
v -18.500000 -0.500000 -0.250000
v -18.500000 0.500000 -0.250000
v -15.500000 -0.500000 0.250000
v -15.500000 0.500000 0.250000
v -16.500000 -0.500000 0.250000
v -16.500000 0.500000 0.250000
v -15.500000 -0.500000 -0.250000
v -15.500000 0.500000 -0.250000
v -16.500000 -0.500000 -0.250000
v -16.500000 0.500000 -0.250000
v -13.500000 -0.500000 0.250000
v -13.500000 0.500000 0.250000
v -14.500000 -0.500000 0.250000
v -14.500000 0.500000 0.250000
v -13.500000 -0.500000 -0.250000
v -13.500000 0.500000 -0.250000
v -14.500000 -0.500000 -0.250000
v -14.500000 0.500000 -0.250000
v -11.500000 -0.500000 0.250000
v -11.500000 0.500000 0.250000
v -12.500000 -0.500000 0.250000
v -12.500000 0.500000 0.250000
v -11.500000 -0.500000 -0.250000
v -11.500000 0.500000 -0.250000
v -12.500000 -0.500000 -0.250000
v -12.500000 0.500000 -0.250000
v -9.500000 -0.500000 0.250000
v -9.500000 0.500000 0.250000
v -10.500000 -0.500000 0.250000
v -10.500000 0.500000 0.250000
v -9.500000 -0.500000 -0.250000
v -9.500000 0.500000 -0.250000
v -10.500000 -0.500000 -0.250000
v -10.500000 0.500000 -0.250000
v -7.500000 -0.500000 0.250000
v -7.500000 0.500000 0.250000
v -8.500000 -0.500000 0.250000
v -8.500000 0.500000 0.250000
v -7.500000 -0.500000 -0.250000
v -7.500000 0.500000 -0.250000
v -8.500000 -0.500000 -0.250000
v -8.500000 0.500000 -0.250000
v -5.500000 -0.500000 0.250000
v -5.500000 0.500000 0.250000
v -6.500000 -0.500000 0.250000
v -6.500000 0.500000 0.250000
v -5.500000 -0.500000 -0.250000
v -5.500000 0.500000 -0.250000
v -6.500000 -0.500000 -0.250000
v -6.500000 0.500000 -0.250000
v -3.500000 -0.500000 0.250000
v -3.500000 0.500000 0.250000
v -4.500000 -0.500000 0.250000
v -4.500000 0.500000 0.250000
v -3.500000 -0.500000 -0.250000
v -3.500000 0.500000 -0.250000
v -4.500000 -0.500000 -0.250000
v -4.500000 0.500000 -0.250000
v -1.500000 -0.500000 0.250000
v -1.500000 0.500000 0.250000
v -2.500000 -0.500000 0.250000
v -2.500000 0.500000 0.250000
v -1.500000 -0.500000 -0.250000
v -1.500000 0.500000 -0.250000
v -2.500000 -0.500000 -0.250000
v -2.500000 0.500000 -0.250000
v 0.500000 -0.500000 0.250000
v 0.500000 0.500000 0.250000
v -0.500000 -0.500000 0.250000
v -0.500000 0.500000 0.250000
v 0.500000 -0.500000 -0.250000
v 0.500000 0.500000 -0.250000
v -0.500000 -0.500000 -0.250000
v -0.500000 0.500000 -0.250000
v 2.500000 -0.500000 0.250000
v 2.500000 0.500000 0.250000
v 1.500000 -0.500000 0.250000
v 1.500000 0.500000 0.250000
v 2.500000 -0.500000 -0.250000
v 2.500000 0.500000 -0.250000
v 1.500000 -0.500000 -0.250000
v 1.500000 0.500000 -0.250000
v 4.500000 -0.500000 0.250000
v 4.500000 0.500000 0.250000
v 3.500000 -0.500000 0.250000
v 3.500000 0.500000 0.250000
v 4.500000 -0.500000 -0.250000
v 4.500000 0.500000 -0.250000
v 3.500000 -0.500000 -0.250000
v 3.500000 0.500000 -0.250000
v 6.500000 -0.500000 0.250000
v 6.500000 0.500000 0.250000
v 5.500000 -0.500000 0.250000
v 5.500000 0.500000 0.250000
v 6.500000 -0.500000 -0.250000
v 6.500000 0.500000 -0.250000
v 5.500000 -0.500000 -0.250000
v 5.500000 0.500000 -0.250000
v 8.500000 -0.500000 0.250000
v 8.500000 0.500000 0.250000
v 7.500000 -0.500000 0.250000
v 7.500000 0.500000 0.250000
v 8.500000 -0.500000 -0.250000
v 8.500000 0.500000 -0.250000
v 7.500000 -0.500000 -0.250000
v 7.500000 0.500000 -0.250000
v 10.500000 -0.500000 0.250000
v 10.500000 0.500000 0.250000
v 9.500000 -0.500000 0.250000
v 9.500000 0.500000 0.250000
v 10.500000 -0.500000 -0.250000
v 10.500000 0.500000 -0.250000
v 9.500000 -0.500000 -0.250000
v 9.500000 0.500000 -0.250000
v 12.500000 -0.500000 0.250000
v 12.500000 0.500000 0.250000
v 11.500000 -0.500000 0.250000
v 11.500000 0.500000 0.250000
v 12.500000 -0.500000 -0.250000
v 12.500000 0.500000 -0.250000
v 11.500000 -0.500000 -0.250000
v 11.500000 0.500000 -0.250000
v 14.500000 -0.500000 0.250000
v 14.500000 0.500000 0.250000
v 13.500000 -0.500000 0.250000
v 13.500000 0.500000 0.250000
v 14.500000 -0.500000 -0.250000
v 14.500000 0.500000 -0.250000
v 13.500000 -0.500000 -0.250000
v 13.500000 0.500000 -0.250000
v 16.500000 -0.500000 0.250000
v 16.500000 0.500000 0.250000
v 15.500000 -0.500000 0.250000
v 15.500000 0.500000 0.250000
v 16.500000 -0.500000 -0.250000
v 16.500000 0.500000 -0.250000
v 15.500000 -0.500000 -0.250000
v 15.500000 0.500000 -0.250000
v 18.500000 -0.500000 0.250000
v 18.500000 0.500000 0.250000
v 17.500000 -0.500000 0.250000
v 17.500000 0.500000 0.250000
v 18.500000 -0.500000 -0.250000
v 18.500000 0.500000 -0.250000
v 17.500000 -0.500000 -0.250000
v 17.500000 0.500000 -0.250000
v 20.500000 -0.500000 0.250000
v 20.500000 0.500000 0.250000
v 19.500000 -0.500000 0.250000
v 19.500000 0.500000 0.250000
v 20.500000 -0.500000 -0.250000
v 20.500000 0.500000 -0.250000
v 19.500000 -0.500000 -0.250000
v 19.500000 0.500000 -0.250000
v 22.500000 -0.500000 0.250000
v 22.500000 0.500000 0.250000
v 21.500000 -0.500000 0.250000
v 21.500000 0.500000 0.250000
v 22.500000 -0.500000 -0.250000
v 22.500000 0.500000 -0.250000
v 21.500000 -0.500000 -0.250000
v 21.500000 0.500000 -0.250000
v 24.500000 -0.500000 0.250000
v 24.500000 0.500000 0.250000
v 23.500000 -0.500000 0.250000
v 23.500000 0.500000 0.250000
v 24.500000 -0.500000 -0.250000
v 24.500000 0.500000 -0.250000
v 23.500000 -0.500000 -0.250000
v 23.500000 0.500000 -0.250000
v 26.500000 -0.500000 0.250000
v 26.500000 0.500000 0.250000
v 25.500000 -0.500000 0.250000
v 25.500000 0.500000 0.250000
v 26.500000 -0.500000 -0.250000
v 26.500000 0.500000 -0.250000
v 25.500000 -0.500000 -0.250000
v 25.500000 0.500000 -0.250000
v 28.500000 -0.500000 0.250000
v 28.500000 0.500000 0.250000
v 27.500000 -0.500000 0.250000
v 27.500000 0.500000 0.250000
v 28.500000 -0.500000 -0.250000
v 28.500000 0.500000 -0.250000
v 27.500000 -0.500000 -0.250000
v 27.500000 0.500000 -0.250000
v 30.500000 -0.500000 0.250000
v 30.500000 0.500000 0.250000
v 29.500000 -0.500000 0.250000
v 29.500000 0.500000 0.250000
v 30.500000 -0.500000 -0.250000
v 30.500000 0.500000 -0.250000
v 29.500000 -0.500000 -0.250000
v 29.500000 0.500000 -0.250000
vn 0.0000 0.0000 1.0000
vn -1.0000 0.0000 0.0000
vn 0.0000 0.0000 -1.0000
vn 1.0000 0.0000 0.0000
vn 0.0000 -1.0000 0.0000
vn 0.0000 1.0000 0.0000
s off
f 2//1 3//1 1//1
f 4//2 7//2 3//2
f 8//3 5//3 7//3
f 6//4 1//4 5//4
f 7//5 1//5 3//5
f 4//6 6//6 8//6
f 10//1 11//1 9//1
f 12//2 15//2 11//2
f 16//3 13//3 15//3
f 14//4 9//4 13//4
f 15//5 9//5 11//5
f 12//6 14//6 16//6
f 18//1 19//1 17//1
f 20//2 23//2 19//2
f 24//3 21//3 23//3
f 22//4 17//4 21//4
f 23//5 17//5 19//5
f 20//6 22//6 24//6
f 26//1 27//1 25//1
f 28//2 31//2 27//2
f 32//3 29//3 31//3
f 30//4 25//4 29//4
f 31//5 25//5 27//5
f 28//6 30//6 32//6
f 34//1 35//1 33//1
f 36//2 39//2 35//2
f 40//3 37//3 39//3
f 38//4 33//4 37//4
f 39//5 33//5 35//5
f 36//6 38//6 40//6
f 42//1 43//1 41//1
f 44//2 47//2 43//2
f 48//3 45//3 47//3
f 46//4 41//4 45//4
f 47//5 41//5 43//5
f 44//6 46//6 48//6
f 50//1 51//1 49//1
f 52//2 55//2 51//2
f 56//3 53//3 55//3
f 54//4 49//4 53//4
f 55//5 49//5 51//5
f 52//6 54//6 56//6
f 58//1 59//1 57//1
f 60//2 63//2 59//2
f 64//3 61//3 63//3
f 62//4 57//4 61//4
f 63//5 57//5 59//5
f 60//6 62//6 64//6
f 66//1 67//1 65//1
f 68//2 71//2 67//2
f 72//3 69//3 71//3
f 70//4 65//4 69//4
f 71//5 65//5 67//5
f 68//6 70//6 72//6
f 74//1 75//1 73//1
f 76//2 79//2 75//2
f 80//3 77//3 79//3
f 78//4 73//4 77//4
f 79//5 73//5 75//5
f 76//6 78//6 80//6
f 82//1 83//1 81//1
f 84//2 87//2 83//2
f 88//3 85//3 87//3
f 86//4 81//4 85//4
f 87//5 81//5 83//5
f 84//6 86//6 88//6
f 90//1 91//1 89//1
f 92//2 95//2 91//2
f 96//3 93//3 95//3
f 94//4 89//4 93//4
f 95//5 89//5 91//5
f 92//6 94//6 96//6
f 98//1 99//1 97//1
f 100//2 103//2 99//2
f 104//3 101//3 103//3
f 102//4 97//4 101//4
f 103//5 97//5 99//5
f 100//6 102//6 104//6
f 106//1 107//1 105//1
f 108//2 111//2 107//2
f 112//3 109//3 111//3
f 110//4 105//4 109//4
f 111//5 105//5 107//5
f 108//6 110//6 112//6
f 114//1 115//1 113//1
f 116//2 119//2 115//2
f 120//3 117//3 119//3
f 118//4 113//4 117//4
f 119//5 113//5 115//5
f 116//6 118//6 120//6
f 122//1 123//1 121//1
f 124//2 127//2 123//2
f 128//3 125//3 127//3
f 126//4 121//4 125//4
f 127//5 121//5 123//5
f 124//6 126//6 128//6
f 130//1 131//1 129//1
f 132//2 135//2 131//2
f 136//3 133//3 135//3
f 134//4 129//4 133//4
f 135//5 129//5 131//5
f 132//6 134//6 136//6
f 138//1 139//1 137//1
f 140//2 143//2 139//2
f 144//3 141//3 143//3
f 142//4 137//4 141//4
f 143//5 137//5 139//5
f 140//6 142//6 144//6
f 146//1 147//1 145//1
f 148//2 151//2 147//2
f 152//3 149//3 151//3
f 150//4 145//4 149//4
f 151//5 145//5 147//5
f 148//6 150//6 152//6
f 154//1 155//1 153//1
f 156//2 159//2 155//2
f 160//3 157//3 159//3
f 158//4 153//4 157//4
f 159//5 153//5 155//5
f 156//6 158//6 160//6
f 162//1 163//1 161//1
f 164//2 167//2 163//2
f 168//3 165//3 167//3
f 166//4 161//4 165//4
f 167//5 161//5 163//5
f 164//6 166//6 168//6
f 170//1 171//1 169//1
f 172//2 175//2 171//2
f 176//3 173//3 175//3
f 174//4 169//4 173//4
f 175//5 169//5 171//5
f 172//6 174//6 176//6
f 178//1 179//1 177//1
f 180//2 183//2 179//2
f 184//3 181//3 183//3
f 182//4 177//4 181//4
f 183//5 177//5 179//5
f 180//6 182//6 184//6
f 186//1 187//1 185//1
f 188//2 191//2 187//2
f 192//3 189//3 191//3
f 190//4 185//4 189//4
f 191//5 185//5 187//5
f 188//6 190//6 192//6
f 194//1 195//1 193//1
f 196//2 199//2 195//2
f 200//3 197//3 199//3
f 198//4 193//4 197//4
f 199//5 193//5 195//5
f 196//6 198//6 200//6
f 202//1 203//1 201//1
f 204//2 207//2 203//2
f 208//3 205//3 207//3
f 206//4 201//4 205//4
f 207//5 201//5 203//5
f 204//6 206//6 208//6
f 210//1 211//1 209//1
f 212//2 215//2 211//2
f 216//3 213//3 215//3
f 214//4 209//4 213//4
f 215//5 209//5 211//5
f 212//6 214//6 216//6
f 218//1 219//1 217//1
f 220//2 223//2 219//2
f 224//3 221//3 223//3
f 222//4 217//4 221//4
f 223//5 217//5 219//5
f 220//6 222//6 224//6
f 226//1 227//1 225//1
f 228//2 231//2 227//2
f 232//3 229//3 231//3
f 230//4 225//4 229//4
f 231//5 225//5 227//5
f 228//6 230//6 232//6
f 234//1 235//1 233//1
f 236//2 239//2 235//2
f 240//3 237//3 239//3
f 238//4 233//4 237//4
f 239//5 233//5 235//5
f 236//6 238//6 240//6
f 242//1 243//1 241//1
f 244//2 247//2 243//2
f 248//3 245//3 247//3
f 246//4 241//4 245//4
f 247//5 241//5 243//5
f 244//6 246//6 248//6
f 2//1 4//1 3//1
f 4//2 8//2 7//2
f 8//3 6//3 5//3
f 6//4 2//4 1//4
f 7//5 5//5 1//5
f 4//6 2//6 6//6
f 10//1 12//1 11//1
f 12//2 16//2 15//2
f 16//3 14//3 13//3
f 14//4 10//4 9//4
f 15//5 13//5 9//5
f 12//6 10//6 14//6
f 18//1 20//1 19//1
f 20//2 24//2 23//2
f 24//3 22//3 21//3
f 22//4 18//4 17//4
f 23//5 21//5 17//5
f 20//6 18//6 22//6
f 26//1 28//1 27//1
f 28//2 32//2 31//2
f 32//3 30//3 29//3
f 30//4 26//4 25//4
f 31//5 29//5 25//5
f 28//6 26//6 30//6
f 34//1 36//1 35//1
f 36//2 40//2 39//2
f 40//3 38//3 37//3
f 38//4 34//4 33//4
f 39//5 37//5 33//5
f 36//6 34//6 38//6
f 42//1 44//1 43//1
f 44//2 48//2 47//2
f 48//3 46//3 45//3
f 46//4 42//4 41//4
f 47//5 45//5 41//5
f 44//6 42//6 46//6
f 50//1 52//1 51//1
f 52//2 56//2 55//2
f 56//3 54//3 53//3
f 54//4 50//4 49//4
f 55//5 53//5 49//5
f 52//6 50//6 54//6
f 58//1 60//1 59//1
f 60//2 64//2 63//2
f 64//3 62//3 61//3
f 62//4 58//4 57//4
f 63//5 61//5 57//5
f 60//6 58//6 62//6
f 66//1 68//1 67//1
f 68//2 72//2 71//2
f 72//3 70//3 69//3
f 70//4 66//4 65//4
f 71//5 69//5 65//5
f 68//6 66//6 70//6
f 74//1 76//1 75//1
f 76//2 80//2 79//2
f 80//3 78//3 77//3
f 78//4 74//4 73//4
f 79//5 77//5 73//5
f 76//6 74//6 78//6
f 82//1 84//1 83//1
f 84//2 88//2 87//2
f 88//3 86//3 85//3
f 86//4 82//4 81//4
f 87//5 85//5 81//5
f 84//6 82//6 86//6
f 90//1 92//1 91//1
f 92//2 96//2 95//2
f 96//3 94//3 93//3
f 94//4 90//4 89//4
f 95//5 93//5 89//5
f 92//6 90//6 94//6
f 98//1 100//1 99//1
f 100//2 104//2 103//2
f 104//3 102//3 101//3
f 102//4 98//4 97//4
f 103//5 101//5 97//5
f 100//6 98//6 102//6
f 106//1 108//1 107//1
f 108//2 112//2 111//2
f 112//3 110//3 109//3
f 110//4 106//4 105//4
f 111//5 109//5 105//5
f 108//6 106//6 110//6
f 114//1 116//1 115//1
f 116//2 120//2 119//2
f 120//3 118//3 117//3
f 118//4 114//4 113//4
f 119//5 117//5 113//5
f 116//6 114//6 118//6
f 122//1 124//1 123//1
f 124//2 128//2 127//2
f 128//3 126//3 125//3
f 126//4 122//4 121//4
f 127//5 125//5 121//5
f 124//6 122//6 126//6
f 130//1 132//1 131//1
f 132//2 136//2 135//2
f 136//3 134//3 133//3
f 134//4 130//4 129//4
f 135//5 133//5 129//5
f 132//6 130//6 134//6
f 138//1 140//1 139//1
f 140//2 144//2 143//2
f 144//3 142//3 141//3
f 142//4 138//4 137//4
f 143//5 141//5 137//5
f 140//6 138//6 142//6
f 146//1 148//1 147//1
f 148//2 152//2 151//2
f 152//3 150//3 149//3
f 150//4 146//4 145//4
f 151//5 149//5 145//5
f 148//6 146//6 150//6
f 154//1 156//1 155//1
f 156//2 160//2 159//2
f 160//3 158//3 157//3
f 158//4 154//4 153//4
f 159//5 157//5 153//5
f 156//6 154//6 158//6
f 162//1 164//1 163//1
f 164//2 168//2 167//2
f 168//3 166//3 165//3
f 166//4 162//4 161//4
f 167//5 165//5 161//5
f 164//6 162//6 166//6
f 170//1 172//1 171//1
f 172//2 176//2 175//2
f 176//3 174//3 173//3
f 174//4 170//4 169//4
f 175//5 173//5 169//5
f 172//6 170//6 174//6
f 178//1 180//1 179//1
f 180//2 184//2 183//2
f 184//3 182//3 181//3
f 182//4 178//4 177//4
f 183//5 181//5 177//5
f 180//6 178//6 182//6
f 186//1 188//1 187//1
f 188//2 192//2 191//2
f 192//3 190//3 189//3
f 190//4 186//4 185//4
f 191//5 189//5 185//5
f 188//6 186//6 190//6
f 194//1 196//1 195//1
f 196//2 200//2 199//2
f 200//3 198//3 197//3
f 198//4 194//4 193//4
f 199//5 197//5 193//5
f 196//6 194//6 198//6
f 202//1 204//1 203//1
f 204//2 208//2 207//2
f 208//3 206//3 205//3
f 206//4 202//4 201//4
f 207//5 205//5 201//5
f 204//6 202//6 206//6
f 210//1 212//1 211//1
f 212//2 216//2 215//2
f 216//3 214//3 213//3
f 214//4 210//4 209//4
f 215//5 213//5 209//5
f 212//6 210//6 214//6
f 218//1 220//1 219//1
f 220//2 224//2 223//2
f 224//3 222//3 221//3
f 222//4 218//4 217//4
f 223//5 221//5 217//5
f 220//6 218//6 222//6
f 226//1 228//1 227//1
f 228//2 232//2 231//2
f 232//3 230//3 229//3
f 230//4 226//4 225//4
f 231//5 229//5 225//5
f 228//6 226//6 230//6
f 234//1 236//1 235//1
f 236//2 240//2 239//2
f 240//3 238//3 237//3
f 238//4 234//4 233//4
f 239//5 237//5 233//5
f 236//6 234//6 238//6
f 242//1 244//1 243//1
f 244//2 248//2 247//2
f 248//3 246//3 245//3
f 246//4 242//4 241//4
f 247//5 245//5 241//5
f 244//6 242//6 246//6
