# Blender v2.79 (sub 0) OBJ File: '3d_pong_models.blend'
# www.blender.org
o logo_BREAKOUT__logo_BREAKOUT
v -27.000000 1.000000 0.999998
v -27.000000 1.000000 -1.000002
v -25.000000 1.000000 0.999998
v -25.000000 1.000000 -1.000002
v -27.000000 1.000000 -3.000002
v -25.000000 1.000000 -3.000002
v -27.000000 1.000000 -5.000002
v -27.000000 -1.000000 -0.000002
v -27.000000 1.000000 2.999998
v -25.000000 1.000000 2.999998
v -27.000000 1.000000 4.999998
v -26.000000 1.000000 -0.000002
v -31.000000 1.000000 0.999998
v -31.000000 1.000000 -1.000002
v -31.000000 1.000000 -3.000002
v -31.000000 1.000000 -5.000002
v -31.000000 1.000000 2.999998
v -31.000000 1.000000 4.999998
v -27.000000 -1.000000 0.999998
v -27.000000 -1.000000 -1.000002
v -25.000000 -1.000000 0.999998
v -25.000000 -1.000000 -1.000002
v -25.000000 -1.000000 -3.000002
v -27.000000 -1.000000 -3.000002
v -31.000000 1.000000 -0.000002
v -27.000000 -1.000000 -5.000002
v -27.000000 -1.000000 2.999998
v -25.000000 -1.000000 2.999998
v -27.000000 -1.000000 4.999998
v -27.000000 1.000000 -0.000002
v -31.000000 -1.000000 -1.000002
v -31.000000 -1.000000 0.999998
v -31.000000 -1.000000 -5.000002
v -31.000000 -1.000000 -3.000002
v -31.000000 -1.000000 2.999998
v -31.000000 -1.000000 4.999998
v -26.000000 -1.000000 -0.000002
v -31.000000 -1.000000 -0.000002
v -29.000000 1.000000 -3.000002
v -29.000000 1.000000 -5.000002
v -29.000000 -1.000000 -3.000002
v -29.000000 -1.000000 -5.000002
v -29.000000 1.000000 0.999998
v -29.000000 1.000000 -1.000002
v -29.000000 -1.000000 0.999998
v -29.000000 -1.000000 -1.000002
v -29.000000 1.000000 -0.000002
v -29.000000 -1.000000 -0.000002
v -29.000000 1.000000 4.999998
v -29.000000 1.000000 2.999998
v -29.000000 -1.000000 4.999998
v -29.000000 -1.000000 2.999998
v 27.000000 1.000000 5.000000
v 29.000000 1.000000 5.000000
v 27.000000 1.000000 -5.000000
v 29.000000 1.000000 -5.000000
v 27.000000 1.000000 -3.000000
v 29.000000 1.000000 -3.000000
v 25.000000 1.000000 -5.000000
v 25.000000 1.000000 -3.000000
v 31.000000 1.000000 -5.000000
v 31.000000 1.000000 -3.000000
v 27.000000 -1.000000 -3.000000
v 27.000000 -1.000000 5.000000
v 29.000000 -1.000000 5.000000
v 29.000000 -1.000000 -3.000000
v 29.000000 -1.000000 -5.000000
v 27.000000 -1.000000 -5.000000
v 25.000000 -1.000000 -5.000000
v 25.000000 -1.000000 -3.000000
v 31.000000 -1.000000 -3.000000
v 31.000000 -1.000000 -5.000000
v 1.000000 1.000000 5.000000
v 3.000000 1.000000 5.000000
v 1.000000 1.000000 -5.000000
v 3.000000 1.000000 -5.000000
v 1.000000 1.000000 -1.000000
v 1.000000 1.000000 1.000001
v 3.000000 1.000000 1.000000
v 3.000000 1.000000 -1.000000
v 7.000000 1.000000 2.000000
v 7.000000 1.000000 1.000000
v 7.000000 1.000000 -1.000000
v 5.000000 1.000000 -5.000000
v 7.000000 1.000000 -5.000000
v 5.000000 1.000000 5.000000
v 7.000000 1.000000 5.000000
v 1.000000 1.000000 0.000000
v 3.000000 1.000000 0.000000
v 5.000000 1.000000 0.000000
v 6.000000 1.000000 0.000000
v 5.000000 1.000000 -2.000000
v 7.000000 1.000000 -2.000000
v 4.000000 1.000000 -1.000000
v 4.000000 1.000000 1.000000
v 4.000000 1.000000 0.000000
v 5.000000 1.000000 2.000000
v 1.000000 -1.000000 5.000000
v 3.000000 -1.000000 5.000000
v 1.000000 -1.000000 -5.000000
v 3.000000 -1.000000 -5.000000
v 1.000000 -1.000000 -1.000000
v 1.000000 -1.000000 1.000001
v 3.000000 -1.000000 1.000000
v 3.000000 -1.000000 -1.000000
v 7.000000 -1.000000 2.000000
v 7.000000 -1.000000 1.000000
v 7.000000 -1.000000 -1.000000
v 5.000000 -1.000000 -5.000000
v 7.000000 -1.000000 -5.000000
v 5.000000 -1.000000 5.000000
v 7.000000 -1.000000 5.000000
v 1.000000 -1.000000 0.000000
v 3.000000 -1.000000 0.000000
v 5.000000 -1.000000 0.000000
v 6.000000 -1.000000 0.000000
v 5.000000 -1.000000 -2.000000
v 7.000000 -1.000000 -2.000000
v 4.000000 -1.000000 -1.000000
v 4.000000 -1.000000 1.000000
v 4.000000 -1.000000 0.000000
v 5.000000 -1.000000 2.000000
v 17.000000 1.000000 3.000000
v 19.000000 1.000000 3.000000
v 17.000000 1.000000 -5.000000
v 19.000000 1.000000 -5.000000
v 19.000000 1.000000 5.000000
v 21.000000 1.000000 3.000000
v 21.000000 1.000000 5.000000
v 23.000000 1.000000 3.000000
v 21.000000 1.000000 -5.000000
v 23.000000 1.000000 -5.000000
v 17.000000 -1.000000 3.000000
v 19.000000 -1.000000 3.000000
v 17.000000 -1.000000 -5.000000
v 19.000000 -1.000000 -5.000000
v 19.000000 -1.000000 5.000000
v 21.000000 -1.000000 3.000000
v 21.000000 -1.000000 5.000000
v 23.000000 -1.000000 3.000000
v 21.000000 -1.000000 -5.000000
v 23.000000 -1.000000 -5.000000
v -7.000000 1.000000 5.000000
v -5.000000 1.000000 5.000000
v -5.000000 1.000000 -5.000000
v -7.000000 1.000000 -3.000000
v -5.000000 1.000000 -3.000000
v -7.000000 1.000000 -1.000000
v -5.000000 1.000000 -1.000000
v -7.000000 1.000000 1.000000
v -5.000000 1.000000 1.000000
v -3.000000 1.000000 5.000000
v -1.000000 1.000000 5.000000
v -3.000000 1.000000 -5.000000
v -3.000000 1.000000 -3.000000
v -1.000000 1.000000 -3.000000
v -3.000000 1.000000 -1.000000
v -1.000000 1.000000 -1.000000
v -3.000000 1.000000 1.000000
v -1.000000 1.000000 1.000000
v -7.000000 -1.000000 5.000000
v -5.000000 -1.000000 5.000000
v -5.000000 -1.000000 -5.000000
v -7.000000 -1.000000 -3.000000
v -5.000000 -1.000000 -3.000000
v -7.000000 -1.000000 -1.000000
v -5.000000 -1.000000 -1.000000
v -7.000000 -1.000000 1.000000
v -5.000000 -1.000000 1.000000
v -3.000000 -1.000000 5.000000
v -1.000000 -1.000000 5.000000
v -3.000000 -1.000000 -5.000000
v -3.000000 -1.000000 -3.000000
v -1.000000 -1.000000 -3.000000
v -3.000000 -1.000000 -1.000000
v -1.000000 -1.000000 -1.000000
v -3.000000 -1.000000 1.000000
v -1.000000 -1.000000 1.000000
v -15.000000 1.000000 5.000000
v -13.000000 1.000000 5.000000
v -15.000000 1.000000 -5.000000
v -13.000000 1.000000 -5.000000
v -15.000000 1.000000 -3.000000
v -15.000000 1.000000 -1.000000
v -15.000000 1.000000 1.000000
v -15.000000 1.000000 3.000000
v -13.000000 1.000000 3.000000
v -13.000000 1.000000 1.000000
v -13.000000 1.000000 -1.000000
v -13.000000 1.000000 -3.000000
v -9.000000 1.000000 -5.000000
v -9.000000 1.000000 -3.000000
v -9.000000 1.000000 1.000000
v -9.000000 1.000000 -1.000000
v -9.000000 1.000000 5.000000
v -9.000000 1.000000 3.000000
v -15.000000 -1.000000 5.000000
v -13.000000 -1.000000 5.000000
v -15.000000 -1.000000 -5.000000
v -13.000000 -1.000000 -5.000000
v -15.000000 -1.000000 -3.000000
v -15.000000 -1.000000 -1.000000
v -15.000000 -1.000000 1.000000
v -15.000000 -1.000000 3.000000
v -13.000000 -1.000000 3.000000
v -13.000000 -1.000000 1.000000
v -13.000000 -1.000000 -1.000000
v -13.000000 -1.000000 -3.000000
v -9.000000 -1.000000 -5.000000
v -9.000000 -1.000000 -3.000000
v -9.000000 -1.000000 1.000000
v -9.000000 -1.000000 -1.000000
v -9.000000 -1.000000 5.000000
v -9.000000 -1.000000 3.000000
v -23.000000 1.000000 5.000000
v -21.000000 1.000000 5.000000
v -23.000000 1.000000 -5.000000
v -21.000000 1.000000 -5.000000
v -23.000000 1.000000 -3.000000
v -21.000000 1.000000 -3.000000
v -23.000000 1.000000 -0.999999
v -23.000000 1.000000 1.000001
v -21.000000 1.000000 1.000001
v -21.000000 1.000000 -1.000000
v -19.000000 1.000000 -5.000000
v -19.000000 1.000000 -3.000000
v -17.000000 1.000000 -3.000000
v -23.000000 1.000000 0.000001
v -19.000000 1.000000 -1.000000
v -19.000000 1.000000 5.000000
v -17.000000 1.000000 5.000000
v -17.000000 1.000000 1.000000
v -19.000000 1.000000 1.000000
v -17.000000 1.000000 -1.000000
v -21.000000 1.000000 0.000001
v -19.000000 1.000000 0.000000
v -18.000000 1.000000 0.000000
v -23.000000 -1.000000 5.000000
v -21.000000 -1.000000 5.000000
v -23.000000 -1.000000 -5.000000
v -21.000000 -1.000000 -5.000000
v -23.000000 -1.000000 -3.000000
v -21.000000 -1.000000 -3.000000
v -23.000000 -1.000000 -0.999999
v -23.000000 -1.000000 1.000001
v -21.000000 -1.000000 1.000001
v -21.000000 -1.000000 -1.000000
v -19.000000 -1.000000 -5.000000
v -19.000000 -1.000000 -3.000000
v -17.000000 -1.000000 -3.000000
v -23.000000 -1.000000 0.000001
v -19.000000 -1.000000 -1.000000
v -19.000000 -1.000000 5.000000
v -17.000000 -1.000000 5.000000
v -17.000000 -1.000000 1.000000
v -19.000000 -1.000000 1.000000
v -17.000000 -1.000000 -1.000000
v -21.000000 -1.000000 0.000001
v -19.000000 -1.000000 0.000000
v -18.000000 -1.000000 0.000000
v 11.000000 1.000000 5.000000
v 11.000000 1.000000 -5.000000
v 9.000000 1.000000 -3.000000
v 11.000000 1.000000 -3.000000
v 9.000000 1.000000 3.000000
v 11.000000 1.000000 3.000000
v 13.000000 1.000000 5.000000
v 13.000000 1.000000 -5.000000
v 13.000000 1.000000 -3.000000
v 15.000000 1.000000 -3.000000
v 13.000000 1.000000 3.000000
v 15.000000 1.000000 3.000000
v 9.000000 -1.000000 3.000000
v 11.000000 -1.000000 5.000000
v 11.000000 -1.000000 -3.000000
v 11.000000 -1.000000 -5.000000
v 9.000000 -1.000000 -3.000000
v 11.000000 -1.000000 3.000000
v 13.000000 -1.000000 3.000000
v 13.000000 -1.000000 5.000000
v 15.000000 -1.000000 -3.000000
v 13.000000 -1.000000 -5.000000
v 13.000000 -1.000000 -3.000000
v 15.000000 -1.000000 3.000000
vn 0.0000 -1.0000 0.0000
vn 0.0000 1.0000 0.0000
vn 0.0000 0.0000 1.0000
vn 0.7071 0.0000 0.7071
vn -1.0000 0.0000 0.0000
vn 0.7071 -0.0000 -0.7071
vn 0.0000 0.0000 -1.0000
vn 1.0000 0.0000 0.0000
vn -0.7071 0.0000 0.7071
vn -0.7071 0.0000 -0.7071
s off
f 48//1 31//1 46//1
f 1//2 12//2 30//2
f 4//2 5//2 2//2
f 5//2 6//2 7//2
f 34//1 42//1 41//1
f 1//2 10//2 3//2
f 10//2 9//2 11//2
f 36//1 52//1 51//1
f 34//1 46//1 31//1
f 37//1 19//1 8//1
f 24//1 22//1 20//1
f 24//1 26//1 23//1
f 41//3 5//3 39//3
f 28//1 19//1 21//1
f 28//1 29//1 27//1
f 49//3 36//3 51//3
f 28//4 11//4 29//4
f 38//5 13//5 25//5
f 45//3 1//3 43//3
f 19//5 9//5 1//5
f 16//5 34//5 15//5
f 37//4 4//4 12//4
f 14//2 47//2 44//2
f 31//5 25//5 14//5
f 35//5 18//5 17//5
f 21//6 12//6 3//6
f 32//1 52//1 35//1
f 33//7 40//7 42//7
f 17//2 49//2 50//2
f 24//5 2//5 5//5
f 16//2 39//2 40//2
f 22//8 6//8 4//8
f 28//8 3//8 10//8
f 25//2 43//2 47//2
f 23//6 7//6 6//6
f 20//1 37//1 8//1
f 2//2 12//2 4//2
f 32//1 48//1 45//1
f 40//2 5//2 7//2
f 42//7 7//7 26//7
f 15//5 31//5 14//5
f 41//1 26//1 24//1
f 45//1 8//1 19//1
f 47//2 1//2 30//2
f 44//2 30//2 2//2
f 13//5 35//5 17//5
f 46//7 2//7 20//7
f 48//1 20//1 8//1
f 50//2 11//2 9//2
f 27//7 50//7 9//7
f 11//3 51//3 29//3
f 51//1 27//1 29//1
f 41//8 44//8 46//8
f 39//2 14//2 44//2
f 45//8 50//8 52//8
f 43//2 17//2 50//2
f 58//2 55//2 57//2
f 54//2 57//2 53//2
f 55//2 60//2 57//2
f 58//2 61//2 56//2
f 68//1 66//1 63//1
f 63//1 65//1 64//1
f 70//1 68//1 63//1
f 72//1 66//1 67//1
f 68//7 59//7 55//7
f 67//7 55//7 56//7
f 71//8 61//8 62//8
f 63//5 53//5 57//5
f 69//5 60//5 59//5
f 72//7 56//7 61//7
f 64//3 54//3 53//3
f 70//3 57//3 60//3
f 65//8 58//8 54//8
f 66//3 62//3 58//3
f 80//2 75//2 77//2
f 74//2 78//2 73//2
f 89//2 77//2 88//2
f 97//2 91//2 90//2
f 93//2 84//2 92//2
f 97//2 87//2 81//2
f 91//2 83//2 92//2
f 79//2 88//2 78//2
f 89//2 94//2 80//2
f 79//2 96//2 89//2
f 100//1 105//1 102//1
f 103//1 99//1 98//1
f 102//1 114//1 113//1
f 116//1 107//1 122//1
f 109//1 118//1 117//1
f 112//1 122//1 106//1
f 117//1 116//1 115//1
f 113//1 104//1 103//1
f 119//1 114//1 105//1
f 121//1 104//1 114//1
f 107//6 91//6 82//6
f 103//5 73//5 78//5
f 112//8 81//8 87//8
f 104//3 95//3 79//3
f 98//3 74//3 73//3
f 118//8 85//8 93//8
f 105//8 76//8 80//8
f 111//3 87//3 86//3
f 101//7 75//7 76//7
f 106//8 82//8 81//8
f 119//7 80//7 94//7
f 109//5 92//5 84//5
f 100//5 77//5 75//5
f 122//5 86//5 97//5
f 116//4 83//4 91//4
f 108//8 93//8 83//8
f 113//5 78//5 88//5
f 102//5 88//5 77//5
f 120//9 97//9 95//9
f 99//8 79//8 74//8
f 110//7 84//7 85//7
f 117//10 94//10 92//10
f 124//2 125//2 123//2
f 124//2 123//2 127//2
f 127//2 128//2 124//2
f 128//2 129//2 130//2
f 130//2 131//2 128//2
f 135//1 134//1 133//1
f 134//1 137//1 133//1
f 138//1 137//1 134//1
f 138//1 140//1 139//1
f 141//1 140//1 138//1
f 140//8 132//8 130//8
f 136//7 125//7 126//7
f 139//4 130//4 129//4
f 135//5 123//5 125//5
f 138//7 124//7 128//7
f 142//7 131//7 132//7
f 137//3 129//3 127//3
f 133//9 127//9 123//9
f 141//5 128//5 131//5
f 134//8 126//8 124//8
f 146//2 147//2 145//2
f 149//2 146//2 148//2
f 151//2 148//2 150//2
f 144//2 150//2 143//2
f 155//2 156//2 154//2
f 158//2 155//2 157//2
f 160//2 157//2 159//2
f 153//2 159//2 152//2
f 155//2 145//2 147//2
f 159//2 149//2 151//2
f 164//1 163//1 165//1
f 164//1 167//1 166//1
f 166//1 169//1 168//1
f 168//1 162//1 161//1
f 173//1 172//1 174//1
f 173//1 176//1 175//1
f 175//1 178//1 177//1
f 177//1 171//1 170//1
f 163//1 173//1 165//1
f 167//1 177//1 169//1
f 164//5 148//5 146//5
f 174//6 154//6 156//6
f 171//8 160//8 153//8
f 168//5 143//5 150//5
f 161//3 144//3 143//3
f 176//8 156//8 158//8
f 166//5 150//5 148//5
f 165//3 155//3 147//3
f 162//8 151//8 144//8
f 172//7 145//7 154//7
f 163//10 146//10 145//10
f 173//5 157//5 155//5
f 169//3 159//3 151//3
f 167//8 147//8 149//8
f 178//8 158//8 160//8
f 177//5 152//5 159//5
f 175//7 149//7 157//7
f 170//3 153//3 152//3
f 190//2 181//2 183//2
f 180//2 186//2 179//2
f 187//2 185//2 186//2
f 188//2 184//2 185//2
f 189//2 183//2 184//2
f 190//2 191//2 182//2
f 188//2 194//2 189//2
f 180//2 196//2 187//2
f 199//1 208//1 201//1
f 204//1 198//1 197//1
f 203//1 205//1 204//1
f 202//1 206//1 203//1
f 201//1 207//1 202//1
f 209//1 208//1 200//1
f 212//1 206//1 207//1
f 214//1 198//1 205//1
f 214//7 187//7 196//7
f 197//3 180//3 179//3
f 210//8 191//8 192//8
f 205//8 188//8 187//8
f 198//3 195//3 180//3
f 209//7 182//7 191//7
f 200//7 181//7 182//7
f 208//3 192//3 190//3
f 207//8 190//8 189//8
f 199//5 183//5 181//5
f 211//8 194//8 193//8
f 201//5 184//5 183//5
f 212//7 189//7 194//7
f 202//5 185//5 184//5
f 206//3 193//3 188//3
f 203//5 186//5 185//5
f 213//8 196//8 195//8
f 204//5 179//5 186//5
f 220//2 217//2 219//2
f 224//2 219//2 221//2
f 216//2 222//2 215//2
f 235//2 221//2 228//2
f 220//2 225//2 218//2
f 225//2 226//2 227//2
f 233//2 235//2 223//2
f 226//2 234//2 227//2
f 229//2 237//2 234//2
f 237//2 233//2 232//2
f 233//2 231//2 232//2
f 236//2 224//2 235//2
f 223//2 228//2 222//2
f 240//1 243//1 242//1
f 242//1 247//1 244//1
f 245//1 239//1 238//1
f 244//1 258//1 251//1
f 248//1 243//1 241//1
f 248//1 250//1 249//1
f 258//1 256//1 246//1
f 257//1 249//1 250//1
f 260//1 252//1 257//1
f 260//1 256//1 259//1
f 254//1 256//1 255//1
f 247//1 259//1 258//1
f 251//1 246//1 245//1
f 249//5 229//5 226//5
f 256//5 230//5 233//5
f 248//7 218//7 225//7
f 252//7 224//7 229//7
f 242//5 221//5 219//5
f 245//5 215//5 222//5
f 243//3 226//3 220//3
f 246//3 233//3 223//3
f 251//5 222//5 228//5
f 238//3 216//3 215//3
f 250//6 225//6 227//6
f 260//4 234//4 237//4
f 239//8 223//8 216//8
f 254//8 232//8 231//8
f 255//6 237//6 232//6
f 244//5 228//5 221//5
f 241//7 217//7 218//7
f 257//8 227//8 234//8
f 240//5 219//5 217//5
f 253//3 231//3 230//3
f 247//8 220//8 224//8
f 263//2 264//2 262//2
f 266//2 263//2 265//2
f 265//2 261//2 266//2
f 269//2 270//2 268//2
f 272//2 269//2 271//2
f 267//2 272//2 271//2
f 269//2 262//2 264//2
f 267//2 266//2 261//2
f 277//1 276//1 275//1
f 277//1 278//1 273//1
f 273//1 278//1 274//1
f 283//1 282//1 281//1
f 283//1 284//1 279//1
f 280//1 279//1 284//1
f 276//1 283//1 275//1
f 278//1 280//1 274//1
f 274//3 267//3 261//3
f 277//5 265//5 263//5
f 279//7 266//7 271//7
f 276//10 263//10 262//10
f 281//6 268//6 270//6
f 275//3 269//3 264//3
f 283//5 271//5 269//5
f 278//8 264//8 266//8
f 282//7 262//7 268//7
f 273//9 261//9 265//9
f 280//4 272//4 267//4
f 284//8 270//8 272//8
f 48//1 38//1 31//1
f 1//2 3//2 12//2
f 4//2 6//2 5//2
f 34//1 33//1 42//1
f 1//2 9//2 10//2
f 36//1 35//1 52//1
f 34//1 41//1 46//1
f 37//1 21//1 19//1
f 24//1 23//1 22//1
f 41//3 24//3 5//3
f 28//1 27//1 19//1
f 49//3 18//3 36//3
f 28//4 10//4 11//4
f 38//5 32//5 13//5
f 45//3 19//3 1//3
f 19//5 27//5 9//5
f 16//5 33//5 34//5
f 37//4 22//4 4//4
f 14//2 25//2 47//2
f 31//5 38//5 25//5
f 35//5 36//5 18//5
f 21//6 37//6 12//6
f 32//1 45//1 52//1
f 33//7 16//7 40//7
f 17//2 18//2 49//2
f 24//5 20//5 2//5
f 16//2 15//2 39//2
f 22//8 23//8 6//8
f 28//8 21//8 3//8
f 25//2 13//2 43//2
f 23//6 26//6 7//6
f 20//1 22//1 37//1
f 2//2 30//2 12//2
f 32//1 38//1 48//1
f 40//2 39//2 5//2
f 42//7 40//7 7//7
f 15//5 34//5 31//5
f 41//1 42//1 26//1
f 45//1 48//1 8//1
f 47//2 43//2 1//2
f 44//2 47//2 30//2
f 13//5 32//5 35//5
f 46//7 44//7 2//7
f 48//1 46//1 20//1
f 50//2 49//2 11//2
f 27//7 52//7 50//7
f 11//3 49//3 51//3
f 51//1 52//1 27//1
f 41//8 39//8 44//8
f 39//2 15//2 14//2
f 45//8 43//8 50//8
f 43//2 13//2 17//2
f 58//2 56//2 55//2
f 54//2 58//2 57//2
f 55//2 59//2 60//2
f 58//2 62//2 61//2
f 68//1 67//1 66//1
f 63//1 66//1 65//1
f 70//1 69//1 68//1
f 72//1 71//1 66//1
f 68//7 69//7 59//7
f 67//7 68//7 55//7
f 71//8 72//8 61//8
f 63//5 64//5 53//5
f 69//5 70//5 60//5
f 72//7 67//7 56//7
f 64//3 65//3 54//3
f 70//3 63//3 57//3
f 65//8 66//8 58//8
f 66//3 71//3 62//3
f 80//2 76//2 75//2
f 74//2 79//2 78//2
f 89//2 80//2 77//2
f 96//2 95//2 90//2
f 97//2 81//2 82//2
f 82//2 91//2 97//2
f 90//2 95//2 97//2
f 93//2 85//2 84//2
f 97//2 86//2 87//2
f 92//2 94//2 90//2
f 90//2 91//2 92//2
f 94//2 96//2 90//2
f 83//2 93//2 92//2
f 79//2 89//2 88//2
f 89//2 96//2 94//2
f 79//2 95//2 96//2
f 100//1 101//1 105//1
f 103//1 104//1 99//1
f 102//1 105//1 114//1
f 122//1 120//1 115//1
f 115//1 116//1 122//1
f 120//1 121//1 115//1
f 107//1 106//1 122//1
f 109//1 110//1 118//1
f 112//1 111//1 122//1
f 121//1 119//1 115//1
f 117//1 118//1 108//1
f 108//1 116//1 117//1
f 115//1 119//1 117//1
f 113//1 114//1 104//1
f 119//1 121//1 114//1
f 121//1 120//1 104//1
f 107//6 116//6 91//6
f 103//5 98//5 73//5
f 112//8 106//8 81//8
f 104//3 120//3 95//3
f 98//3 99//3 74//3
f 118//8 110//8 85//8
f 105//8 101//8 76//8
f 111//3 112//3 87//3
f 101//7 100//7 75//7
f 106//8 107//8 82//8
f 119//7 105//7 80//7
f 109//5 117//5 92//5
f 100//5 102//5 77//5
f 122//5 111//5 86//5
f 116//4 108//4 83//4
f 108//8 118//8 93//8
f 113//5 103//5 78//5
f 102//5 113//5 88//5
f 120//9 122//9 97//9
f 99//8 104//8 79//8
f 110//7 109//7 84//7
f 117//10 119//10 94//10
f 124//2 126//2 125//2
f 127//2 129//2 128//2
f 130//2 132//2 131//2
f 135//1 136//1 134//1
f 138//1 139//1 137//1
f 141//1 142//1 140//1
f 140//8 142//8 132//8
f 136//7 135//7 125//7
f 139//4 140//4 130//4
f 135//5 133//5 123//5
f 138//7 134//7 124//7
f 142//7 141//7 131//7
f 137//3 139//3 129//3
f 133//9 137//9 127//9
f 141//5 138//5 128//5
f 134//8 136//8 126//8
f 149//2 147//2 146//2
f 151//2 149//2 148//2
f 144//2 151//2 150//2
f 158//2 156//2 155//2
f 160//2 158//2 157//2
f 153//2 160//2 159//2
f 155//2 154//2 145//2
f 159//2 157//2 149//2
f 164//1 165//1 167//1
f 166//1 167//1 169//1
f 168//1 169//1 162//1
f 173//1 174//1 176//1
f 175//1 176//1 178//1
f 177//1 178//1 171//1
f 163//1 172//1 173//1
f 167//1 175//1 177//1
f 164//5 166//5 148//5
f 174//6 172//6 154//6
f 171//8 178//8 160//8
f 168//5 161//5 143//5
f 161//3 162//3 144//3
f 176//8 174//8 156//8
f 166//5 168//5 150//5
f 165//3 173//3 155//3
f 162//8 169//8 151//8
f 172//7 163//7 145//7
f 163//10 164//10 146//10
f 173//5 175//5 157//5
f 169//3 177//3 159//3
f 167//8 165//8 147//8
f 178//8 176//8 158//8
f 177//5 170//5 152//5
f 175//7 167//7 149//7
f 170//3 171//3 153//3
f 190//2 182//2 181//2
f 180//2 187//2 186//2
f 187//2 188//2 185//2
f 188//2 189//2 184//2
f 189//2 190//2 183//2
f 190//2 192//2 191//2
f 188//2 193//2 194//2
f 180//2 195//2 196//2
f 199//1 200//1 208//1
f 204//1 205//1 198//1
f 203//1 206//1 205//1
f 202//1 207//1 206//1
f 201//1 208//1 207//1
f 209//1 210//1 208//1
f 212//1 211//1 206//1
f 214//1 213//1 198//1
f 214//7 205//7 187//7
f 197//3 198//3 180//3
f 210//8 209//8 191//8
f 205//8 206//8 188//8
f 198//3 213//3 195//3
f 209//7 200//7 182//7
f 200//7 199//7 181//7
f 208//3 210//3 192//3
f 207//8 208//8 190//8
f 199//5 201//5 183//5
f 211//8 212//8 194//8
f 201//5 202//5 184//5
f 212//7 207//7 189//7
f 202//5 203//5 185//5
f 206//3 211//3 193//3
f 203//5 204//5 186//5
f 213//8 214//8 196//8
f 204//5 197//5 179//5
f 220//2 218//2 217//2
f 224//2 220//2 219//2
f 216//2 223//2 222//2
f 235//2 224//2 221//2
f 220//2 226//2 225//2
f 233//2 236//2 235//2
f 226//2 229//2 234//2
f 229//2 236//2 237//2
f 237//2 236//2 233//2
f 233//2 230//2 231//2
f 236//2 229//2 224//2
f 223//2 235//2 228//2
f 240//1 241//1 243//1
f 242//1 243//1 247//1
f 245//1 246//1 239//1
f 244//1 247//1 258//1
f 248//1 249//1 243//1
f 258//1 259//1 256//1
f 257//1 252//1 249//1
f 260//1 259//1 252//1
f 260//1 255//1 256//1
f 254//1 253//1 256//1
f 247//1 252//1 259//1
f 251//1 258//1 246//1
f 249//5 252//5 229//5
f 256//5 253//5 230//5
f 248//7 241//7 218//7
f 252//7 247//7 224//7
f 242//5 244//5 221//5
f 245//5 238//5 215//5
f 243//3 249//3 226//3
f 246//3 256//3 233//3
f 251//5 245//5 222//5
f 238//3 239//3 216//3
f 250//6 248//6 225//6
f 260//4 257//4 234//4
f 239//8 246//8 223//8
f 254//8 255//8 232//8
f 255//6 260//6 237//6
f 244//5 251//5 228//5
f 241//7 240//7 217//7
f 257//8 250//8 227//8
f 240//5 242//5 219//5
f 253//3 254//3 231//3
f 247//8 243//8 220//8
f 266//2 264//2 263//2
f 272//2 270//2 269//2
f 269//2 268//2 262//2
f 267//2 271//2 266//2
f 277//1 275//1 278//1
f 283//1 281//1 284//1
f 276//1 282//1 283//1
f 278//1 279//1 280//1
f 274//3 280//3 267//3
f 277//5 273//5 265//5
f 279//7 278//7 266//7
f 276//10 277//10 263//10
f 281//6 282//6 268//6
f 275//3 283//3 269//3
f 283//5 279//5 271//5
f 278//8 275//8 264//8
f 282//7 276//7 262//7
f 273//9 274//9 261//9
f 280//4 284//4 272//4
f 284//8 281//8 270//8
