# Blender v2.79 (sub 0) OBJ File: '3d_pong_models.blend'
# www.blender.org
o logo__PONG__logo_PONG
v 11.000000 1.000000 5.000000
v 13.000000 1.000000 -2.000000
v 11.000000 1.000000 -5.000000
v 9.000000 1.000000 -3.000000
v 9.000000 1.000000 3.000000
v 11.000000 1.000000 3.000000
v 11.000000 1.000000 -3.000000
v 13.000000 1.000000 5.000000
v 12.000000 1.000000 -1.000000
v 13.000000 1.000000 -5.000000
v 12.000000 1.000000 1.000000
v 13.000000 1.000000 -3.000000
v 13.000000 1.000000 3.000000
v 15.000000 1.000000 3.000000
v 13.000000 1.000000 1.000000
v 15.000000 1.000000 -1.000000
v 15.000000 1.000000 -3.000000
v 13.000000 1.000000 -1.000000
v 15.000000 1.000000 1.000000
v 15.000000 1.000000 -2.000000
v 13.000000 -1.000000 -3.000000
v 15.000000 -1.000000 -3.000000
v 9.000000 -1.000000 3.000000
v 11.000000 -1.000000 5.000000
v 11.000000 -1.000000 -3.000000
v 11.000000 -1.000000 -5.000000
v 9.000000 -1.000000 -3.000000
v 11.000000 -1.000000 3.000000
v 13.000000 -1.000000 3.000000
v 13.000000 -1.000000 5.000000
v 13.000000 -1.000000 -1.000000
v 12.000000 -1.000000 -1.000000
v 12.000000 -1.000000 1.000000
v 13.000000 -1.000000 1.000000
v 13.000000 -1.000000 -5.000000
v 13.000000 -1.000000 -2.000000
v 15.000000 -1.000000 -2.000000
v 15.000000 -1.000000 3.000000
v 15.000000 -1.000000 1.000000
v 15.000000 -1.000000 -1.000000
v 1.000000 1.000000 5.000000
v 3.000000 1.000000 5.000000
v 1.000000 1.000000 -5.000000
v 3.000000 1.000000 -5.000000
v 1.000000 1.000000 0.000000
v 3.000000 1.000000 0.000000
v 5.000000 1.000000 5.000000
v 7.000000 1.000000 5.000000
v 5.000000 1.000000 -5.000000
v 7.000000 1.000000 -5.000000
v 5.000000 1.000000 0.000000
v 7.000000 1.000000 0.000000
v 1.000000 -1.000000 5.000000
v 3.000000 -1.000000 5.000000
v 3.000000 -1.000000 0.000000
v 3.000000 -1.000000 -5.000000
v 1.000000 -1.000000 -5.000000
v 1.000000 -1.000000 0.000000
v 5.000000 -1.000000 0.000000
v 5.000000 -1.000000 5.000000
v 7.000000 -1.000000 5.000000
v 7.000000 -1.000000 -5.000000
v 5.000000 -1.000000 -5.000000
v 7.000000 -1.000000 0.000000
v -5.000000 1.000000 5.000000
v -5.000000 1.000000 -5.000000
v -7.000000 1.000000 -3.000000
v -5.000000 1.000000 -3.000000
v -7.000000 1.000000 3.000000
v -5.000000 1.000000 3.000000
v -3.000000 1.000000 5.000000
v -3.000000 1.000000 -5.000000
v -3.000000 1.000000 -3.000000
v -1.000000 1.000000 -3.000000
v -3.000000 1.000000 3.000000
v -1.000000 1.000000 3.000000
v -7.000000 -1.000000 3.000000
v -5.000000 -1.000000 5.000000
v -5.000000 -1.000000 -3.000000
v -5.000000 -1.000000 -5.000000
v -7.000000 -1.000000 -3.000000
v -5.000000 -1.000000 3.000000
v -3.000000 -1.000000 3.000000
v -3.000000 -1.000000 5.000000
v -1.000000 -1.000000 -3.000000
v -3.000000 -1.000000 -5.000000
v -3.000000 -1.000000 -3.000000
v -1.000000 -1.000000 3.000000
v -15.000000 1.000000 5.000000
v -13.000000 1.000000 5.000000
v -15.000000 1.000000 -5.000000
v -13.000000 1.000000 -5.000000
v -15.000000 1.000000 -3.000000
v -13.000000 1.000000 -3.000000
v -15.000000 1.000000 -1.000000
v -13.000000 1.000000 -1.000000
v -15.000000 1.000000 1.000000
v -13.000000 1.000000 1.000000
v -11.000000 1.000000 -5.000000
v -11.000000 1.000000 -3.000000
v -9.000000 1.000000 -3.000000
v -11.000000 1.000000 -1.000000
v -9.000000 1.000000 -1.000000
v -11.000000 1.000000 1.000000
v -15.000000 -1.000000 5.000000
v -13.000000 -1.000000 5.000000
v -15.000000 -1.000000 -5.000000
v -13.000000 -1.000000 -5.000000
v -15.000000 -1.000000 -3.000000
v -13.000000 -1.000000 -3.000000
v -15.000000 -1.000000 -1.000000
v -13.000000 -1.000000 -1.000000
v -15.000000 -1.000000 1.000000
v -13.000000 -1.000000 1.000000
v -11.000000 -1.000000 -5.000000
v -11.000000 -1.000000 -3.000000
v -9.000000 -1.000000 -3.000000
v -11.000000 -1.000000 -1.000000
v -9.000000 -1.000000 -1.000000
v -11.000000 -1.000000 1.000000
vn 0.0000 1.0000 0.0000
vn 0.0000 -1.0000 0.0000
vn -1.0000 0.0000 0.0000
vn 0.0000 0.0000 1.0000
vn 0.0000 0.0000 -1.0000
vn 1.0000 0.0000 0.0000
vn 0.7071 0.0000 0.7071
vn -0.7071 0.0000 0.7071
vn -0.7071 0.0000 -0.7071
vn 0.7071 0.0000 -0.7071
vn 0.9285 0.0000 -0.3714
vn -0.9285 0.0000 0.3714
s off
f 4//1 7//1 3//1
f 5//1 1//1 6//1
f 6//1 4//1 5//1
f 19//1 18//1 15//1
f 8//1 14//1 13//1
f 14//1 15//1 13//1
f 12//1 3//1 7//1
f 8//1 6//1 1//1
f 18//1 11//1 15//1
f 10//1 12//1 17//1
f 12//1 20//1 17//1
f 27//2 26//2 25//2
f 23//2 28//2 24//2
f 27//2 28//2 23//2
f 31//2 39//2 34//2
f 30//2 29//2 38//2
f 34//2 38//2 29//2
f 26//2 21//2 25//2
f 28//2 30//2 24//2
f 33//2 31//2 34//2
f 35//2 22//2 21//2
f 37//2 21//2 22//2
f 27//3 5//3 4//3
f 25//4 12//4 7//4
f 32//3 11//3 9//3
f 35//5 3//5 10//5
f 37//6 17//6 20//6
f 28//6 7//6 6//6
f 24//4 8//4 1//4
f 36//4 20//4 2//4
f 21//3 2//3 12//3
f 29//5 6//5 13//5
f 30//7 14//7 8//7
f 23//8 1//8 5//8
f 39//6 16//6 19//6
f 40//5 18//5 16//5
f 31//5 9//5 18//5
f 38//6 19//6 14//6
f 26//9 4//9 3//9
f 22//10 10//10 17//10
f 33//4 15//4 11//4
f 34//3 13//3 15//3
f 46//1 43//1 45//1
f 52//1 49//1 51//1
f 48//1 51//1 47//1
f 46//1 51//1 44//1
f 42//1 45//1 41//1
f 57//2 55//2 58//2
f 63//2 64//2 59//2
f 59//2 61//2 60//2
f 55//2 59//2 60//2
f 58//2 54//2 53//2
f 59//11 44//11 51//11
f 54//6 46//6 42//6
f 64//6 50//6 52//6
f 56//5 43//5 44//5
f 62//5 49//5 50//5
f 57//3 45//3 43//3
f 63//3 51//3 49//3
f 53//4 42//4 41//4
f 55//12 47//12 46//12
f 58//3 41//3 45//3
f 61//6 52//6 48//6
f 60//4 48//4 47//4
f 67//1 68//1 66//1
f 70//1 67//1 69//1
f 69//1 65//1 70//1
f 73//1 74//1 72//1
f 76//1 73//1 75//1
f 71//1 76//1 75//1
f 73//1 66//1 68//1
f 71//1 70//1 65//1
f 81//2 80//2 79//2
f 81//2 82//2 77//2
f 77//2 82//2 78//2
f 87//2 86//2 85//2
f 87//2 88//2 83//2
f 84//2 83//2 88//2
f 80//2 87//2 79//2
f 82//2 84//2 78//2
f 78//4 71//4 65//4
f 81//3 69//3 67//3
f 83//5 70//5 75//5
f 80//9 67//9 66//9
f 85//10 72//10 74//10
f 79//4 73//4 68//4
f 87//3 75//3 73//3
f 82//6 68//6 70//6
f 86//5 66//5 72//5
f 77//8 65//8 69//8
f 84//7 76//7 71//7
f 88//6 74//6 76//6
f 94//1 91//1 93//1
f 96//1 93//1 95//1
f 98//1 95//1 97//1
f 90//1 97//1 89//1
f 94//1 99//1 92//1
f 99//1 100//1 101//1
f 100//1 103//1 101//1
f 103//1 102//1 104//1
f 104//1 96//1 98//1
f 107//2 110//2 109//2
f 109//2 112//2 111//2
f 111//2 114//2 113//2
f 113//2 106//2 105//2
f 115//2 110//2 108//2
f 115//2 117//2 116//2
f 119//2 116//2 117//2
f 119//2 120//2 118//2
f 112//2 120//2 114//2
f 112//6 94//6 96//6
f 116//3 102//3 100//3
f 120//7 103//7 104//7
f 115//5 92//5 99//5
f 109//3 95//3 93//3
f 113//3 89//3 97//3
f 110//4 100//4 94//4
f 114//4 104//4 98//4
f 105//4 90//4 89//4
f 117//10 99//10 101//10
f 118//5 96//5 102//5
f 111//3 97//3 95//3
f 108//5 91//5 92//5
f 106//6 98//6 90//6
f 107//3 93//3 91//3
f 119//6 101//6 103//6
f 6//1 7//1 4//1
f 19//1 16//1 18//1
f 14//1 19//1 15//1
f 12//1 10//1 3//1
f 8//1 13//1 6//1
f 18//1 9//1 11//1
f 12//1 2//1 20//1
f 27//2 25//2 28//2
f 31//2 40//2 39//2
f 34//2 39//2 38//2
f 26//2 35//2 21//2
f 28//2 29//2 30//2
f 33//2 32//2 31//2
f 37//2 36//2 21//2
f 27//3 23//3 5//3
f 25//4 21//4 12//4
f 32//3 33//3 11//3
f 35//5 26//5 3//5
f 37//6 22//6 17//6
f 28//6 25//6 7//6
f 24//4 30//4 8//4
f 36//4 37//4 20//4
f 21//3 36//3 2//3
f 29//5 28//5 6//5
f 30//7 38//7 14//7
f 23//8 24//8 1//8
f 39//6 40//6 16//6
f 40//5 31//5 18//5
f 31//5 32//5 9//5
f 38//6 39//6 19//6
f 26//9 27//9 4//9
f 22//10 35//10 10//10
f 33//4 34//4 15//4
f 34//3 29//3 13//3
f 46//1 44//1 43//1
f 52//1 50//1 49//1
f 48//1 52//1 51//1
f 46//1 47//1 51//1
f 42//1 46//1 45//1
f 57//2 56//2 55//2
f 63//2 62//2 64//2
f 59//2 64//2 61//2
f 55//2 56//2 59//2
f 58//2 55//2 54//2
f 59//11 56//11 44//11
f 54//6 55//6 46//6
f 64//6 62//6 50//6
f 56//5 57//5 43//5
f 62//5 63//5 49//5
f 57//3 58//3 45//3
f 63//3 59//3 51//3
f 53//4 54//4 42//4
f 55//12 60//12 47//12
f 58//3 53//3 41//3
f 61//6 64//6 52//6
f 60//4 61//4 48//4
f 70//1 68//1 67//1
f 76//1 74//1 73//1
f 73//1 72//1 66//1
f 71//1 75//1 70//1
f 81//2 79//2 82//2
f 87//2 85//2 88//2
f 80//2 86//2 87//2
f 82//2 83//2 84//2
f 78//4 84//4 71//4
f 81//3 77//3 69//3
f 83//5 82//5 70//5
f 80//9 81//9 67//9
f 85//10 86//10 72//10
f 79//4 87//4 73//4
f 87//3 83//3 75//3
f 82//6 79//6 68//6
f 86//5 80//5 66//5
f 77//8 78//8 65//8
f 84//7 88//7 76//7
f 88//6 85//6 74//6
f 94//1 92//1 91//1
f 96//1 94//1 93//1
f 98//1 96//1 95//1
f 90//1 98//1 97//1
f 94//1 100//1 99//1
f 100//1 102//1 103//1
f 104//1 102//1 96//1
f 107//2 108//2 110//2
f 109//2 110//2 112//2
f 111//2 112//2 114//2
f 113//2 114//2 106//2
f 115//2 116//2 110//2
f 119//2 118//2 116//2
f 112//2 118//2 120//2
f 112//6 110//6 94//6
f 116//3 118//3 102//3
f 120//7 119//7 103//7
f 115//5 108//5 92//5
f 109//3 111//3 95//3
f 113//3 105//3 89//3
f 110//4 116//4 100//4
f 114//4 120//4 104//4
f 105//4 106//4 90//4
f 117//10 115//10 99//10
f 118//5 112//5 96//5
f 111//3 113//3 97//3
f 108//5 107//5 91//5
f 106//6 114//6 98//6
f 107//3 109//3 93//3
f 119//6 117//6 101//6
