# Blender v2.79 (sub 0) OBJ File: '3d_pong_models.blend'
# www.blender.org
o Round_Paddle
v -2.000000 0.000000 0.500000
v -2.000000 -0.000000 -0.500000
v -1.732051 -1.000000 0.500000
v -1.732051 -1.000000 -0.500000
v -1.000000 -1.732051 0.500000
v -1.000000 -1.732051 -0.500000
v -0.000000 -2.000000 0.500000
v -0.000000 -2.000000 -0.500000
v 1.000000 -1.732051 0.500000
v 1.000000 -1.732051 -0.500000
v 1.732051 -1.000000 0.500000
v 1.732051 -1.000000 -0.500000
v 2.000000 -0.000000 0.500000
v 2.000000 -0.000000 -0.500000
v 1.732051 1.000000 0.500000
v 1.732051 1.000000 -0.500000
v 1.000000 1.732050 0.500000
v 1.000000 1.732050 -0.500000
v 0.000001 2.000000 0.500000
v 0.000001 2.000000 -0.500000
v -0.999999 1.732051 0.500000
v -0.999999 1.732051 -0.500000
v -1.732050 1.000001 0.500000
v -1.732050 1.000001 -0.500000
vn -0.9659 -0.2588 0.0000
vn -0.7071 -0.7071 0.0000
vn -0.2588 -0.9659 0.0000
vn 0.2588 -0.9659 0.0000
vn 0.7071 -0.7071 0.0000
vn 0.9659 -0.2588 -0.0000
vn 0.9659 0.2588 0.0000
vn 0.7071 0.7071 0.0000
vn 0.2588 0.9659 0.0000
vn -0.2588 0.9659 -0.0000
vn -0.0000 -0.0000 -1.0000
vn -0.7071 0.7071 0.0000
vn -0.9659 0.2588 0.0000
vn 0.0000 0.0000 1.0000
s off
f 2//1 3//1 1//1
f 3//2 6//2 5//2
f 6//3 7//3 5//3
f 8//4 9//4 7//4
f 10//5 11//5 9//5
f 12//6 13//6 11//6
f 14//7 15//7 13//7
f 15//8 18//8 17//8
f 18//9 19//9 17//9
f 20//10 21//10 19//10
f 22//11 10//11 6//11
f 22//12 23//12 21//12
f 23//13 2//13 1//13
f 11//14 15//14 23//14
f 2//1 4//1 3//1
f 3//2 4//2 6//2
f 6//3 8//3 7//3
f 8//4 10//4 9//4
f 10//5 12//5 11//5
f 12//6 14//6 13//6
f 14//7 16//7 15//7
f 15//8 16//8 18//8
f 18//9 20//9 19//9
f 20//10 22//10 21//10
f 6//11 4//11 2//11
f 2//11 24//11 22//11
f 22//11 20//11 18//11
f 18//11 16//11 14//11
f 14//11 12//11 10//11
f 10//11 8//11 6//11
f 6//11 2//11 22//11
f 22//11 18//11 14//11
f 14//11 10//11 22//11
f 22//12 24//12 23//12
f 23//13 24//13 2//13
f 23//14 1//14 3//14
f 3//14 5//14 7//14
f 7//14 9//14 11//14
f 11//14 13//14 15//14
f 15//14 17//14 19//14
f 19//14 21//14 23//14
f 23//14 3//14 7//14
f 7//14 11//14 23//14
f 15//14 19//14 23//14
